<?xml version="1.0" encoding="UTF-8"?>
<svg id="Layer_1" xmlns="http://www.w3.org/2000/svg" version="1.1" viewBox="0 0 644.5 199.5">
  <!-- Generator: Adobe Illustrator 30.3.0, SVG Export Plug-In . SVG Version: 2.1.3 Build 182)  -->
  <defs>
    <style>
      .st0 {
        fill: #fff;
      }
    </style>
  </defs>
  <polygon class="st0" points="461 115.6 402.1 115.6 402.1 123.4 426.7 123.4 426.7 183.3 435.9 183.3 435.9 123.4 461 123.4 461 115.6"/>
  <path class="st0" d="M476.5,135c-13.8,0-23.9,10.3-23.9,24.9s10.1,24.7,23.9,24.7,24.2-10.1,24.2-24.7-10.3-24.9-24.2-24.9ZM476.5,177.8c-9.4,0-14.7-7.4-14.7-17.8s5.3-17.8,14.7-17.8,15,7.3,15,17.8-5.4,17.8-15,17.8Z"/>
  <path class="st0" d="M535.7,135c-8.8,0-14.8,5.4-16.8,11.2v-30.6h-9v67.7h6.8l1.9-9.8c2.1,5.9,8.2,11.1,17,11.1,14,0,21.7-10.8,21.7-24.7s-7.7-24.9-21.6-24.9h0ZM533.7,177.6c-8.5,0-15.1-6-15.1-16.4v-2.7c0-10.3,6.6-16.3,15.1-16.3s14.3,6.8,14.3,17.7-5.1,17.7-14.3,17.7h0Z"/>
  <rect class="st0" x="566.3" y="115.6" width="9.2" height="10.1"/>
  <rect class="st0" x="566.6" y="136.3" width="9" height="47"/>
  <path class="st0" d="M611.7,135c-7,0-13.3,4-15.6,9.7v-8.4h-9v47h9v-27c0-8.6,5.7-14.3,12.7-14.3s11.2,4.9,11.2,12.8v28.4h9v-29.1c0-11-4.9-19.1-17.2-19.1h-.1Z"/>
  <path class="st0" d="M533.3,86.6c-2.7,1.5-5.8,2.8-8.8,2.8s-5.8-1.9-5.8-6.1v-28.5h13.2v-6.5h-13.2v-13.1h-5.1l-1.4,6.6c-1.1,4.5-2,6.7-6.5,7.5l-3.1.6v4.8h7.1v29.6c0,9.2,4.7,12.3,11.4,12.3s8.6-1.4,12-4v-6h.1Z"/>
  <rect class="st0" x="319" y="48.3" width="9" height="47"/>
  <rect class="st0" x="318.8" y="27.5" width="9.3" height="10.1"/>
  <rect class="st0" x="339.6" y="27.5" width="9" height="67.7"/>
  <path class="st0" d="M369,85.4c2.1,5.9,8.2,11.1,17,11.1,14,0,21.7-10.8,21.7-24.7s-7.7-24.9-21.6-24.9-14.8,5.4-16.8,11.2v-30.6h-9v67.7h6.8l1.9-9.8h0ZM369,70.5c0-10.3,6.6-16.3,15.1-16.3s14.3,6.8,14.3,17.7-5.1,17.7-14.3,17.7-15.1-6-15.1-16.4c0,0,0-2.7,0-2.7Z"/>
  <path class="st0" d="M438.4,96.6c11.7,0,19.6-6.4,21.9-17.1l-7.4-1.1c-1.8,7.3-6.6,11.1-14.4,11.1s-15-6.4-15.3-15.7h37.5v-3.4c0-12.8-7.7-23.4-22.6-23.4s-23.8,10.6-23.8,25.5,10.3,24,24.2,24h0ZM437.9,53.7c8.8,0,13.2,7,13.4,14.6h-28c.9-7.9,6.1-14.6,14.6-14.6h0Z"/>
  <path class="st0" d="M298,95.2h8.5v-33.5h-29.1v7.3h20.6c-1.2,11.7-9.3,19.6-22,19.6s-24.5-10.4-24.5-27.2,9.8-27.3,23.7-27.3,21.7,8.1,22.4,20.5l8.8-1.3c-1.4-16.8-12.5-27.2-31.3-27.2s-33.1,14.3-33.1,35.1,13.9,35.2,33,35.2,20.1-4.7,23.1-13.3v12h0Z"/>
  <path class="st0" d="M478.8,70.5c0-9.1,5.1-15.2,11.8-15.2s4.6.5,7.1,1.8l1.2-7.9c-1.6-1.4-3.8-2.1-6.7-2.1-6.8,0-11.7,5.5-13.3,10.8v-9.5h-9v47h9s0-24.9,0-24.9Z"/>
  <polygon class="st0" points="338.3 153.5 360.8 153.5 360.8 176.3 368.4 176.3 368.4 153.5 391.1 153.5 391.1 146 368.4 146 368.4 123.4 360.8 123.4 360.8 146 338.3 146 338.3 153.5"/>
  <polygon class="st0" points="191 95.2 191 102 162.4 102 162.4 182 123.5 187.5 123.5 102 94.9 102 94.9 95.2 191 95.2"/>
  <path class="st0" d="M155.7,21.4v55.4h-6.8C135.7,37.9,95.6,3.5,61.8,16.1c-34.5,12.8-22,74.9-5.7,107.9,15.9,32,38.3,54,60.1,64.5,0,0-6.2.7-17.2.7-50.7,0-94-43.9-94-96.9S56.8,7.2,93.8,7.2s39.8,3.5,61.9,14.3h0Z"/>
</svg>